<svg width="180" height="39" fill="none" xmlns="http://www.w3.org/2000/svg"><path d="M3.407 34.938C.491 32.074 0 24.017 0 19.173 0 14.329.491 6.27 3.407 3.407 6.191.677 14.378 0 19.173 0c4.792 0 12.98.673 15.765 3.407 2.916 2.864 3.408 10.92 3.408 15.766s-.492 12.901-3.408 15.765c-2.783 2.731-10.97 3.408-15.765 3.408-4.795-.003-12.982-.677-15.766-3.408Z" fill="#30C3ED"/><path d="M15.214 15.953H8.52l6.245 13.87h4.601l1.182-2.035-5.335-11.835Z" fill="#060505"/><path d="M18.72 23.736a2.126 2.126 0 0 1-1.168.968 2.314 2.314 0 0 1-1.567 0l-.52-.22 9.124-15.773s.858-.74 3.54.708c2.121 1.147 1.645 2.396 1.645 2.396l-9.226 16.02-1.829-4.099ZM63.134 16.288c-.523-3.786-3.436-5.983-7.214-5.983-4.45 0-7.806 3.246-7.806 8.755 0 5.5 3.312 8.754 7.806 8.754 4.052 0 6.74-2.622 7.214-5.876l-3.113-.017c-.39 1.997-2.023 3.12-4.06 3.12-2.763 0-4.743-2.071-4.743-5.982 0-3.843 1.963-5.982 4.751-5.982 2.073 0 3.694 1.173 4.052 3.21h3.113Zm2.48 11.291h3.011v-7.514c0-1.621 1.223-2.771 2.879-2.771.508 0 1.138.092 1.398.173v-2.772a7.335 7.335 0 0 0-1.08-.083c-1.466 0-2.688.832-3.154 2.312h-.133v-2.13h-2.921v12.785Zm14.21.249c2.98 0 5.026-1.457 5.558-3.68l-2.812-.314c-.408 1.08-1.408 1.647-2.705 1.647-1.948 0-3.237-1.28-3.263-3.47h8.904v-.926c0-4.485-2.696-6.456-5.84-6.456-3.662 0-6.05 2.688-6.05 6.633 0 4.011 2.356 6.566 6.208 6.566Zm-3.214-7.847c.093-1.63 1.298-3.002 3.096-3.002 1.73 0 2.896 1.265 2.913 3.002H76.61Zm15.977 7.821c2.196 0 3.188-1.306 3.662-2.24h.182v2.014h2.962v-17.04h-3.02v6.373h-.124c-.457-.925-1.4-2.28-3.654-2.28-2.953 0-5.277 2.312-5.277 6.575 0 4.21 2.254 6.598 5.269 6.598Zm.838-2.471c-1.989 0-3.038-1.749-3.038-4.144 0-2.379 1.032-4.087 3.038-4.087 1.94 0 3.003 1.607 3.003 4.087 0 2.48-1.081 4.144-3.003 4.144Z" fill="#fff"/><path d="m103.604 27.58 1.714-4.827h6.89l1.714 4.827h2.164l-6.257-17.043h-2.13l-6.257 17.043h2.162Zm2.364-6.66 2.728-7.687h.133l2.729 7.688h-5.59Zm21.141-6.123h-2.13L121.45 24.98h-.133l-3.528-10.184h-2.13l4.725 12.78h1.997l4.728-12.78Zm7.283 13.049c2.595 0 4.494-1.298 5.092-3.229l-1.898-.531c-.5 1.332-1.656 1.997-3.197 1.997-2.306 0-3.896-1.489-3.985-4.229h9.277v-.832c0-4.76-2.829-6.39-5.491-6.39-3.462 0-5.757 2.728-5.757 6.656 0 3.928 2.263 6.558 5.959 6.558Zm-3.988-7.691c.133-1.988 1.54-3.76 3.786-3.76 2.13 0 3.494 1.598 3.494 3.76h-7.28Zm14.017-.266c0-2.231 1.381-3.494 3.263-3.494 1.82 0 2.927 1.19 2.927 3.197v7.988h1.963v-8.121c0-3.263-1.74-4.827-4.327-4.827-1.93 0-3.13.864-3.728 2.165h-.168V14.8h-1.898v12.78h1.962v-7.69h.006Zm19.586 2.465c0 2.396-1.833 3.495-3.295 3.495-1.63 0-2.795-1.2-2.795-3.064v-7.988h-1.962v8.121c0 3.263 1.731 4.826 4.127 4.826 1.931 0 3.197-1.031 3.795-2.329h.133v2.165h1.962V14.797h-1.962v7.557h-.003Zm10.705 5.492c2.595 0 4.494-1.298 5.092-3.229l-1.899-.531c-.5 1.332-1.656 1.997-3.196 1.997-2.304 0-3.893-1.489-3.986-4.229H180v-.832c0-4.76-2.829-6.39-5.491-6.39-3.462 0-5.757 2.728-5.757 6.656 0 3.928 2.266 6.558 5.96 6.558Zm-3.986-7.691c.133-1.988 1.541-3.76 3.786-3.76 2.13 0 3.494 1.598 3.494 3.76h-7.28Z" fill="#30C3ED"/></svg>